<svg width="228" height="40" viewBox="0 0 228 40" version="2.0" xmlns="http://www.w3.org/2000/svg"
    xmlns:xlink="http://www.w3.org/1999/xlink" xmlns:figma="http://www.figma.com/figma/ns">
    <title>ic_banner.svg</title>
    <desc>Created using Figma 0.90</desc>
    <g id="Canvas" transform="translate(606 404)" figma:type="canvas">
        <mask id="mask0_outline" mask-type="alpha">
            <path d="M -606 -404L -378 -404L -378 -364L -606 -364L -606 -404Z" fill="#FFFFFF" />
        </mask>
        <g id="ic_banner" style="mix-blend-mode:normal;" mask="url(#mask0_outline)"
            figma:type="frame">
            <g id="powered by Studentenwerk Halle" style="mix-blend-mode:normal;" figma:type="text">
                <use xlink:href="#path0_fill" transform="translate(-606 -415)" fill="#000000"
                    fill-opacity="0.3" style="mix-blend-mode:normal;" />
                <use xlink:href="#path1_fill" transform="translate(-606 -415)" fill="#000000"
                    fill-opacity="0.2" style="mix-blend-mode:normal;" />
            </g>
        </g>
    </g>
    <defs>
        <path id="path0_fill"
            d="M 10.8633 45.8555C 10.8633 45.2539 10.6484 44.7852 10.2188 44.4492C 9.79688 44.1133 9.05078 43.7656 7.98047 43.4062C 6.91016 43.0469 6.03516 42.6992 5.35547 42.3633C 3.14453 41.2773 2.03906 39.7852 2.03906 37.8867C 2.03906 36.9414 2.3125 36.1094 2.85938 35.3906C 3.41406 34.6641 4.19531 34.1016 5.20312 33.7031C 6.21094 33.2969 7.34375 33.0938 8.60156 33.0938C 9.82813 33.0938 10.9258 33.3125 11.8945 33.75C 12.8711 34.1875 13.6289 34.8125 14.168 35.625C 14.707 36.4297 14.9766 37.3516 14.9766 38.3906L 10.875 38.3906C 10.875 37.6953 10.6602 37.1562 10.2305 36.7734C 9.80859 36.3906 9.23438 36.1992 8.50781 36.1992C 7.77344 36.1992 7.19141 36.3633 6.76172 36.6914C 6.33984 37.0117 6.12891 37.4219 6.12891 37.9219C 6.12891 38.3594 6.36328 38.7578 6.83203 39.1172C 7.30078 39.4688 8.125 39.8359 9.30469 40.2188C 10.4844 40.5938 11.4531 41 12.2109 41.4375C 14.0547 42.5 14.9766 43.9648 14.9766 45.832C 14.9766 47.3242 14.4141 48.4961 13.2891 49.3477C 12.1641 50.1992 10.6211 50.625 8.66016 50.625C 7.27734 50.625 6.02344 50.3789 4.89844 49.8867C 3.78125 49.3867 2.9375 48.707 2.36719 47.8477C 1.80469 46.9805 1.52344 45.9844 1.52344 44.8594L 5.64844 44.8594C 5.64844 45.7734 5.88281 46.4492 6.35156 46.8867C 6.82813 47.3164 7.59766 47.5312 8.66016 47.5312C 9.33984 47.5312 9.875 47.3867 10.2656 47.0977C 10.6641 46.8008 10.8633 46.3867 10.8633 45.8555ZM 21.5039 34.5586L 21.5039 37.7109L 23.5898 37.7109L 23.5898 40.4531L 21.5039 40.4531L 21.5039 46.2539C 21.5039 46.7305 21.5898 47.0625 21.7617 47.25C 21.9336 47.4375 22.2734 47.5312 22.7812 47.5312C 23.1719 47.5312 23.5 47.5078 23.7656 47.4609L 23.7656 50.2852C 23.0547 50.5117 22.3125 50.625 21.5391 50.625C 20.1797 50.625 19.1758 50.3047 18.5273 49.6641C 17.8789 49.0234 17.5547 48.0508 17.5547 46.7461L 17.5547 40.4531L 15.9375 40.4531L 15.9375 37.7109L 17.5547 37.7109L 17.5547 34.5586L 21.5039 34.5586ZM 32.707 49.0195C 31.8711 50.0898 30.7422 50.625 29.3203 50.625C 27.9297 50.625 26.875 50.2227 26.1562 49.418C 25.4453 48.6055 25.0898 47.4414 25.0898 45.9258L 25.0898 37.7109L 29.0391 37.7109L 29.0391 45.9492C 29.0391 47.0352 29.5664 47.5781 30.6211 47.5781C 31.5273 47.5781 32.1719 47.2539 32.5547 46.6055L 32.5547 37.7109L 36.5273 37.7109L 36.5273 50.3906L 32.8242 50.3906L 32.707 49.0195ZM 38.2031 43.957C 38.2031 41.9492 38.6367 40.3672 39.5039 39.2109C 40.3711 38.0547 41.582 37.4766 43.1367 37.4766C 44.2695 37.4766 45.2227 37.9219 45.9961 38.8125L 45.9961 32.3906L 49.957 32.3906L 49.957 50.3906L 46.4062 50.3906L 46.207 49.0312C 45.3945 50.0937 44.3633 50.625 43.1133 50.625C 41.6055 50.625 40.4102 50.0469 39.5273 48.8906C 38.6445 47.7344 38.2031 46.0898 38.2031 43.957ZM 42.1523 44.2031C 42.1523 46.4531 42.8086 47.5781 44.1211 47.5781C 44.9961 47.5781 45.6211 47.2109 45.9961 46.4766L 45.9961 41.6484C 45.6367 40.8984 45.0195 40.5234 44.1445 40.5234C 42.9258 40.5234 42.2656 41.5078 42.1641 43.4766L 42.1523 44.2031ZM 58.3359 50.625C 56.3906 50.625 54.8164 50.0469 53.6133 48.8906C 52.4102 47.7266 51.8086 46.2148 51.8086 44.3555L 51.8086 44.0273C 51.8086 42.7305 52.0469 41.5859 52.5234 40.5938C 53.0078 39.6016 53.7109 38.8359 54.6328 38.2969C 55.5547 37.75 56.6484 37.4766 57.9141 37.4766C 59.6953 37.4766 61.1016 38.0313 62.1328 39.1406C 63.1641 40.2422 63.6797 41.7812 63.6797 43.7578L 63.6797 45.293L 55.8281 45.293C 55.9688 46.0039 56.2773 46.5625 56.7539 46.9688C 57.2305 47.375 57.8477 47.5781 58.6055 47.5781C 59.8555 47.5781 60.832 47.1406 61.5352 46.2656L 63.3398 48.3984C 62.8477 49.0781 62.1484 49.6211 61.2422 50.0273C 60.3437 50.4258 59.375 50.625 58.3359 50.625ZM 57.8906 40.5234C 56.7344 40.5234 56.0469 41.2891 55.8281 42.8203L 59.8125 42.8203L 59.8125 42.5156C 59.8281 41.8828 59.668 41.3945 59.332 41.0508C 58.9961 40.6992 58.5156 40.5234 57.8906 40.5234ZM 68.9062 37.7109L 69.0352 39.1992C 69.9102 38.0508 71.1172 37.4766 72.6562 37.4766C 73.9766 37.4766 74.9609 37.8711 75.6094 38.6602C 76.2656 39.4492 76.6055 40.6367 76.6289 42.2227L 76.6289 50.3906L 72.668 50.3906L 72.668 42.3867C 72.668 41.7461 72.5391 41.2773 72.2812 40.9805C 72.0234 40.6758 71.5547 40.5234 70.875 40.5234C 70.1016 40.5234 69.5273 40.8281 69.1523 41.4375L 69.1523 50.3906L 65.2031 50.3906L 65.2031 37.7109L 68.9062 37.7109ZM 83.4258 34.5586L 83.4258 37.7109L 85.5117 37.7109L 85.5117 40.4531L 83.4258 40.4531L 83.4258 46.2539C 83.4258 46.7305 83.5117 47.0625 83.6836 47.25C 83.8555 47.4375 84.1953 47.5312 84.7031 47.5312C 85.0937 47.5312 85.4219 47.5078 85.6875 47.4609L 85.6875 50.2852C 84.9766 50.5117 84.2344 50.625 83.4609 50.625C 82.1016 50.625 81.0977 50.3047 80.4492 49.6641C 79.8008 49.0234 79.4766 48.0508 79.4766 46.7461L 79.4766 40.4531L 77.8594 40.4531L 77.8594 37.7109L 79.4766 37.7109L 79.4766 34.5586L 83.4258 34.5586ZM 93.2109 50.625C 91.2656 50.625 89.6914 50.0469 88.4883 48.8906C 87.2852 47.7266 86.6836 46.2148 86.6836 44.3555L 86.6836 44.0273C 86.6836 42.7305 86.9219 41.5859 87.3984 40.5938C 87.8828 39.6016 88.5859 38.8359 89.5078 38.2969C 90.4297 37.75 91.5234 37.4766 92.7891 37.4766C 94.5703 37.4766 95.9766 38.0313 97.0078 39.1406C 98.0391 40.2422 98.5547 41.7812 98.5547 43.7578L 98.5547 45.293L 90.7031 45.293C 90.8438 46.0039 91.1523 46.5625 91.6289 46.9688C 92.1055 47.375 92.7227 47.5781 93.4805 47.5781C 94.7305 47.5781 95.707 47.1406 96.4102 46.2656L 98.2148 48.3984C 97.7227 49.0781 97.0234 49.6211 96.1172 50.0273C 95.2187 50.4258 94.25 50.625 93.2109 50.625ZM 92.7656 40.5234C 91.6094 40.5234 90.9219 41.2891 90.7031 42.8203L 94.6875 42.8203L 94.6875 42.5156C 94.7031 41.8828 94.543 41.3945 94.207 41.0508C 93.8711 40.6992 93.3906 40.5234 92.7656 40.5234ZM 103.781 37.7109L 103.91 39.1992C 104.785 38.0508 105.992 37.4766 107.531 37.4766C 108.852 37.4766 109.836 37.8711 110.484 38.6602C 111.141 39.4492 111.48 40.6367 111.504 42.2227L 111.504 50.3906L 107.543 50.3906L 107.543 42.3867C 107.543 41.7461 107.414 41.2773 107.156 40.9805C 106.898 40.6758 106.43 40.5234 105.75 40.5234C 104.977 40.5234 104.402 40.8281 104.027 41.4375L 104.027 50.3906L 100.078 50.3906L 100.078 37.7109L 103.781 37.7109ZM 124.652 45.1875L 125.93 37.7109L 129.715 37.7109L 126.727 50.3906L 123.387 50.3906L 121.289 42.8672L 119.18 50.3906L 115.84 50.3906L 112.852 37.7109L 116.637 37.7109L 117.891 45.3633L 119.906 37.7109L 122.66 37.7109L 124.652 45.1875ZM 137.273 50.625C 135.328 50.625 133.754 50.0469 132.551 48.8906C 131.348 47.7266 130.746 46.2148 130.746 44.3555L 130.746 44.0273C 130.746 42.7305 130.984 41.5859 131.461 40.5938C 131.945 39.6016 132.648 38.8359 133.57 38.2969C 134.492 37.75 135.586 37.4766 136.852 37.4766C 138.633 37.4766 140.039 38.0313 141.07 39.1406C 142.102 40.2422 142.617 41.7812 142.617 43.7578L 142.617 45.293L 134.766 45.293C 134.906 46.0039 135.215 46.5625 135.691 46.9688C 136.168 47.375 136.785 47.5781 137.543 47.5781C 138.793 47.5781 139.77 47.1406 140.473 46.2656L 142.277 48.3984C 141.785 49.0781 141.086 49.6211 140.18 50.0273C 139.281 50.4258 138.313 50.625 137.273 50.625ZM 136.828 40.5234C 135.672 40.5234 134.984 41.2891 134.766 42.8203L 138.75 42.8203L 138.75 42.5156C 138.766 41.8828 138.605 41.3945 138.27 41.0508C 137.934 40.6992 137.453 40.5234 136.828 40.5234ZM 151.887 41.2852L 150.586 41.1914C 149.344 41.1914 148.547 41.582 148.195 42.3633L 148.195 50.3906L 144.246 50.3906L 144.246 37.7109L 147.949 37.7109L 148.078 39.3398C 148.742 38.0977 149.668 37.4766 150.855 37.4766C 151.277 37.4766 151.645 37.5234 151.957 37.6172L 151.887 41.2852ZM 158.402 45.668L 157.289 46.7812L 157.289 50.3906L 153.34 50.3906L 153.34 32.3789L 157.289 32.3789L 157.289 41.9414L 157.688 41.4141L 160.664 37.7109L 165.398 37.7109L 160.957 42.9258L 165.691 50.3906L 161.168 50.3906L 158.402 45.668ZM 186.855 50.3906L 182.766 50.3906L 182.766 43.2656L 176.707 43.2656L 176.707 50.3906L 172.594 50.3906L 172.594 33.3281L 176.707 33.3281L 176.707 40.1016L 182.766 40.1016L 182.766 33.3281L 186.855 33.3281L 186.855 50.3906ZM 196.43 50.3906C 196.289 50.1328 196.164 49.7539 196.055 49.2539C 195.328 50.168 194.312 50.625 193.008 50.625C 191.812 50.625 190.797 50.2656 189.961 49.5469C 189.125 48.8203 188.707 47.9102 188.707 46.8164C 188.707 45.4414 189.215 44.4023 190.23 43.6992C 191.246 42.9961 192.723 42.6445 194.66 42.6445L 195.879 42.6445L 195.879 41.9766C 195.879 40.8125 195.375 40.2305 194.367 40.2305C 193.43 40.2305 192.961 40.6914 192.961 41.6133L 189.012 41.6133C 189.012 40.3867 189.531 39.3906 190.57 38.625C 191.617 37.8594 192.949 37.4766 194.566 37.4766C 196.184 37.4766 197.461 37.8711 198.398 38.6602C 199.336 39.4492 199.816 40.5313 199.84 41.9062L 199.84 47.5195C 199.855 48.6836 200.035 49.5742 200.379 50.1914L 200.379 50.3906L 196.43 50.3906ZM 193.957 47.8125C 194.449 47.8125 194.855 47.707 195.176 47.4961C 195.504 47.2852 195.738 47.0469 195.879 46.7812L 195.879 44.7539L 194.73 44.7539C 193.355 44.7539 192.668 45.3711 192.668 46.6055C 192.668 46.9648 192.789 47.2578 193.031 47.4844C 193.273 47.7031 193.582 47.8125 193.957 47.8125ZM 206.203 50.3906L 202.242 50.3906L 202.242 32.3906L 206.203 32.3906L 206.203 50.3906ZM 212.812 50.3906L 208.852 50.3906L 208.852 32.3906L 212.812 32.3906L 212.812 50.3906ZM 221.391 50.625C 219.445 50.625 217.871 50.0469 216.668 48.8906C 215.465 47.7266 214.863 46.2148 214.863 44.3555L 214.863 44.0273C 214.863 42.7305 215.102 41.5859 215.578 40.5938C 216.062 39.6016 216.766 38.8359 217.688 38.2969C 218.609 37.75 219.703 37.4766 220.969 37.4766C 222.75 37.4766 224.156 38.0313 225.188 39.1406C 226.219 40.2422 226.734 41.7812 226.734 43.7578L 226.734 45.293L 218.883 45.293C 219.023 46.0039 219.332 46.5625 219.809 46.9688C 220.285 47.375 220.902 47.5781 221.66 47.5781C 222.91 47.5781 223.887 47.1406 224.59 46.2656L 226.395 48.3984C 225.902 49.0781 225.203 49.6211 224.297 50.0273C 223.398 50.4258 222.43 50.625 221.391 50.625ZM 220.945 40.5234C 219.789 40.5234 219.102 41.2891 218.883 42.8203L 222.867 42.8203L 222.867 42.5156C 222.883 41.8828 222.723 41.3945 222.387 41.0508C 222.051 40.6992 221.57 40.5234 220.945 40.5234Z" />
        <path id="path1_fill"
            d="M 85.1113 18.6221C 85.1113 19.7705 84.8516 20.6888 84.332 21.377C 83.8171 22.0605 83.1198 22.4023 82.2402 22.4023C 81.5612 22.4023 81.0029 22.154 80.5654 21.6572L 80.5654 25.1094L 78.2617 25.1094L 78.2617 14.8691L 80.415 14.8691L 80.4834 15.5527C 80.9255 15.0059 81.5065 14.7324 82.2266 14.7324C 83.138 14.7324 83.8467 15.0697 84.3525 15.7441C 84.8584 16.4141 85.1113 17.3369 85.1113 18.5127L 85.1113 18.6221ZM 82.8076 18.4785C 82.8076 17.166 82.4248 16.5098 81.6592 16.5098C 81.1123 16.5098 80.7477 16.7057 80.5654 17.0977L 80.5654 20.0098C 80.766 20.4199 81.1351 20.625 81.6729 20.625C 82.4066 20.625 82.7848 19.9915 82.8076 18.7246L 82.8076 18.4785ZM 85.8428 18.499C 85.8428 17.7607 85.9863 17.1045 86.2734 16.5303C 86.5605 15.9515 86.973 15.5072 87.5107 15.1973C 88.0485 14.8874 88.6797 14.7324 89.4043 14.7324C 90.5117 14.7324 91.3844 15.0765 92.0225 15.7646C 92.6605 16.4482 92.9795 17.3802 92.9795 18.5605L 92.9795 18.6426C 92.9795 19.7956 92.6582 20.7116 92.0156 21.3906C 91.3776 22.0651 90.5117 22.4023 89.418 22.4023C 88.3652 22.4023 87.5199 22.0879 86.8818 21.459C 86.2438 20.8255 85.8997 19.9688 85.8496 18.8887L 85.8428 18.499ZM 88.1465 18.6426C 88.1465 19.3262 88.2536 19.8275 88.4678 20.1465C 88.682 20.4655 88.9987 20.625 89.418 20.625C 90.2383 20.625 90.6576 19.9938 90.6758 18.7314L 90.6758 18.499C 90.6758 17.1729 90.252 16.5098 89.4043 16.5098C 88.6341 16.5098 88.2171 17.0817 88.1533 18.2256L 88.1465 18.6426ZM 100.383 19.2305L 101.128 14.8691L 103.336 14.8691L 101.593 22.2656L 99.6445 22.2656L 98.4209 17.877L 97.1904 22.2656L 95.2422 22.2656L 93.499 14.8691L 95.707 14.8691L 96.4385 19.333L 97.6143 14.8691L 99.2207 14.8691L 100.383 19.2305ZM 107.745 22.4023C 106.61 22.4023 105.692 22.0651 104.99 21.3906C 104.288 20.7116 103.938 19.8298 103.938 18.7451L 103.938 18.5537C 103.938 17.7972 104.076 17.1296 104.354 16.5508C 104.637 15.972 105.047 15.5254 105.585 15.2109C 106.123 14.8919 106.761 14.7324 107.499 14.7324C 108.538 14.7324 109.358 15.056 109.96 15.7031C 110.562 16.3457 110.862 17.2435 110.862 18.3965L 110.862 19.292L 106.282 19.292C 106.364 19.7067 106.544 20.0326 106.822 20.2695C 107.1 20.5065 107.46 20.625 107.902 20.625C 108.632 20.625 109.201 20.3698 109.611 19.8594L 110.664 21.1035C 110.377 21.5 109.969 21.8167 109.44 22.0537C 108.916 22.2861 108.351 22.4023 107.745 22.4023ZM 107.485 16.5098C 106.811 16.5098 106.41 16.9564 106.282 17.8496L 108.606 17.8496L 108.606 17.6719C 108.616 17.3027 108.522 17.0179 108.326 16.8174C 108.13 16.6123 107.85 16.5098 107.485 16.5098ZM 116.27 16.9541L 115.511 16.8994C 114.786 16.8994 114.321 17.1273 114.116 17.583L 114.116 22.2656L 111.812 22.2656L 111.812 14.8691L 113.973 14.8691L 114.048 15.8193C 114.435 15.0947 114.975 14.7324 115.668 14.7324C 115.914 14.7324 116.128 14.7598 116.311 14.8145L 116.27 16.9541ZM 120.556 22.4023C 119.421 22.4023 118.503 22.0651 117.801 21.3906C 117.099 20.7116 116.748 19.8298 116.748 18.7451L 116.748 18.5537C 116.748 17.7972 116.887 17.1296 117.165 16.5508C 117.448 15.972 117.858 15.5254 118.396 15.2109C 118.933 14.8919 119.571 14.7324 120.31 14.7324C 121.349 14.7324 122.169 15.056 122.771 15.7031C 123.372 16.3457 123.673 17.2435 123.673 18.3965L 123.673 19.292L 119.093 19.292C 119.175 19.7067 119.355 20.0326 119.633 20.2695C 119.911 20.5065 120.271 20.625 120.713 20.625C 121.442 20.625 122.012 20.3698 122.422 19.8594L 123.475 21.1035C 123.188 21.5 122.78 21.8167 122.251 22.0537C 121.727 22.2861 121.162 22.4023 120.556 22.4023ZM 120.296 16.5098C 119.621 16.5098 119.22 16.9564 119.093 17.8496L 121.417 17.8496L 121.417 17.6719C 121.426 17.3027 121.333 17.0179 121.137 16.8174C 120.941 16.6123 120.66 16.5098 120.296 16.5098ZM 124.315 18.5127C 124.315 17.3415 124.568 16.4186 125.074 15.7441C 125.58 15.0697 126.286 14.7324 127.193 14.7324C 127.854 14.7324 128.41 14.9922 128.861 15.5117L 128.861 11.7656L 131.172 11.7656L 131.172 22.2656L 129.101 22.2656L 128.984 21.4727C 128.51 22.0924 127.909 22.4023 127.18 22.4023C 126.3 22.4023 125.603 22.0651 125.088 21.3906C 124.573 20.7161 124.315 19.7568 124.315 18.5127ZM 126.619 18.6562C 126.619 19.9688 127.002 20.625 127.768 20.625C 128.278 20.625 128.643 20.4108 128.861 19.9824L 128.861 17.166C 128.652 16.7285 128.292 16.5098 127.781 16.5098C 127.07 16.5098 126.685 17.084 126.626 18.2324L 126.619 18.6562ZM 142.834 18.6289C 142.834 19.8411 142.583 20.7731 142.082 21.4248C 141.581 22.0765 140.874 22.4023 139.963 22.4023C 139.211 22.4023 138.605 22.1038 138.145 21.5068L 138.049 22.2656L 135.984 22.2656L 135.984 11.7656L 138.288 11.7656L 138.288 15.4639C 138.716 14.9762 139.27 14.7324 139.949 14.7324C 140.87 14.7324 141.581 15.0628 142.082 15.7236C 142.583 16.3844 142.834 17.3141 142.834 18.5127L 142.834 18.6289ZM 140.523 18.4854C 140.523 17.7744 140.428 17.2686 140.236 16.9678C 140.049 16.6624 139.76 16.5098 139.368 16.5098C 138.849 16.5098 138.489 16.708 138.288 17.1045L 138.288 20.0439C 138.484 20.4359 138.849 20.6318 139.382 20.6318C 139.924 20.6318 140.268 20.3675 140.414 19.8389C 140.487 19.5791 140.523 19.1279 140.523 18.4854ZM 146.744 19.0391L 147.975 14.8691L 150.442 14.8691L 147.428 23.5029L 147.298 23.8174C 146.869 24.7744 146.113 25.2529 145.028 25.2529C 144.728 25.2529 144.411 25.2074 144.078 25.1162L 144.078 23.4688L 144.379 23.4688C 144.702 23.4688 144.949 23.4209 145.117 23.3252C 145.29 23.234 145.418 23.0677 145.5 22.8262L 145.685 22.334L 143.114 14.8691L 145.575 14.8691L 146.744 19.0391Z" />
    </defs>
</svg>
